<svg width="64" height="64" viewBox="0 0 64 64" fill="none" xmlns="http://www.w3.org/2000/svg">
<path d="M60.75 0.75H3.25C1.86719 0.75 0.75 1.86719 0.75 3.25V60.75C0.75 62.1328 1.86719 63.25 3.25 63.25H60.75C62.1328 63.25 63.25 62.1328 63.25 60.75V3.25C63.25 1.86719 62.1328 0.75 60.75 0.75ZM53.5312 18.9922H48.5391C44.625 18.9922 43.8672 20.8516 43.8672 23.5859V29.6094H53.2109L51.9922 39.0391H43.8672V63.25H34.125V39.0469H25.9766V29.6094H34.125V22.6562C34.125 14.5859 39.0547 10.1875 46.2578 10.1875C49.7109 10.1875 52.6719 10.4453 53.5391 10.5625V18.9922H53.5312Z" fill="white"/>
</svg>
