<svg width="74" height="74" viewBox="0 0 74 74" fill="none" xmlns="http://www.w3.org/2000/svg">
<path fill-rule="evenodd" clip-rule="evenodd" d="M21.8833 0.553313C25.7933 0.373313 27.04 0.333313 37 0.333313C46.96 0.333313 48.2066 0.376646 52.1133 0.553313C56.02 0.72998 58.6866 1.35331 61.02 2.25665C63.4633 3.17998 65.68 4.62331 67.5133 6.48998C69.38 8.31998 70.82 10.5333 71.74 12.98C72.6466 15.3133 73.2666 17.98 73.4466 21.88C73.6266 25.7966 73.6666 27.0433 73.6666 37C73.6666 46.96 73.6233 48.2066 73.4466 52.1166C73.27 56.0166 72.6466 58.6833 71.74 61.0166C70.8199 63.4636 69.3776 65.6806 67.5133 67.5133C65.68 69.38 63.4633 70.82 61.02 71.74C58.6866 72.6466 56.02 73.2666 52.12 73.4466C48.2066 73.6266 46.96 73.6666 37 73.6666C27.04 73.6666 25.7933 73.6233 21.8833 73.4466C17.9833 73.27 15.3166 72.6466 12.9833 71.74C10.5364 70.8199 8.31938 69.3775 6.48665 67.5133C4.62125 65.6822 3.1777 63.4663 2.25665 61.02C1.35331 58.6866 0.733313 56.02 0.553313 52.12C0.373313 48.2033 0.333313 46.9566 0.333313 37C0.333313 27.04 0.376646 25.7933 0.553313 21.8866C0.72998 17.98 1.35331 15.3133 2.25665 12.98C3.17906 10.5336 4.62371 8.31769 6.48998 6.48665C8.32011 4.62165 10.5349 3.17812 12.98 2.25665C15.3133 1.35331 17.98 0.733313 21.88 0.553313H21.8833ZM51.8166 7.15331C47.95 6.97665 46.79 6.93998 37 6.93998C27.21 6.93998 26.05 6.97665 22.1833 7.15331C18.6066 7.31665 16.6666 7.91331 15.3733 8.41665C13.6633 9.08331 12.44 9.87331 11.1566 11.1566C9.94013 12.3402 9.00391 13.7809 8.41665 15.3733C7.91331 16.6666 7.31665 18.6066 7.15331 22.1833C6.97665 26.05 6.93998 27.21 6.93998 37C6.93998 46.79 6.97665 47.95 7.15331 51.8166C7.31665 55.3933 7.91331 57.3333 8.41665 58.6266C9.00331 60.2166 9.93998 61.66 11.1566 62.8433C12.34 64.06 13.7833 64.9966 15.3733 65.5833C16.6666 66.0866 18.6066 66.6833 22.1833 66.8466C26.05 67.0233 27.2066 67.06 37 67.06C46.7933 67.06 47.95 67.0233 51.8166 66.8466C55.3933 66.6833 57.3333 66.0866 58.6266 65.5833C60.3366 64.9166 61.56 64.1266 62.8433 62.8433C64.06 61.66 64.9966 60.2166 65.5833 58.6266C66.0866 57.3333 66.6833 55.3933 66.8466 51.8166C67.0233 47.95 67.06 46.79 67.06 37C67.06 27.21 67.0233 26.05 66.8466 22.1833C66.6833 18.6066 66.0866 16.6666 65.5833 15.3733C64.9166 13.6633 64.1266 12.44 62.8433 11.1566C61.6597 9.94022 60.219 9.00401 58.6266 8.41665C57.3333 7.91331 55.3933 7.31665 51.8166 7.15331ZM32.3166 48.3033C34.9322 49.3921 37.8446 49.539 40.5564 48.719C43.2682 47.8991 45.6113 46.163 47.1853 43.8075C48.7594 41.4519 49.4668 38.6229 49.1868 35.8037C48.9068 32.9844 47.6567 30.3499 45.65 28.35C44.3708 27.0716 42.824 26.0927 41.1211 25.4838C39.4182 24.8749 37.6014 24.6512 35.8016 24.8287C34.0019 25.0062 32.2638 25.5806 30.7127 26.5104C29.1615 27.4403 27.8358 28.7025 26.831 30.2061C25.8262 31.7098 25.1673 33.4176 24.9017 35.2065C24.6361 36.9954 24.7705 38.821 25.2951 40.5517C25.8197 42.2824 26.7216 43.8753 27.9357 45.2157C29.1498 46.5561 30.6461 47.6106 32.3166 48.3033ZM23.6733 23.6733C25.4234 21.9232 27.501 20.535 29.7876 19.5878C32.0742 18.6407 34.525 18.1532 37 18.1532C39.475 18.1532 41.9257 18.6407 44.2123 19.5878C46.4989 20.535 48.5766 21.9232 50.3266 23.6733C52.0767 25.4234 53.465 27.501 54.4121 29.7876C55.3592 32.0742 55.8467 34.525 55.8467 37C55.8467 39.475 55.3592 41.9257 54.4121 44.2123C53.465 46.4989 52.0767 48.5766 50.3266 50.3266C46.7922 53.8611 41.9984 55.8467 37 55.8467C32.0015 55.8467 27.2078 53.8611 23.6733 50.3266C20.1389 46.7922 18.1532 41.9984 18.1532 37C18.1532 32.0015 20.1389 27.2078 23.6733 23.6733ZM60.0266 20.96C60.4603 20.5509 60.8075 20.0589 61.0477 19.5132C61.2878 18.9675 61.416 18.3792 61.4247 17.7831C61.4334 17.1869 61.3224 16.5951 61.0982 16.0427C60.8741 15.4902 60.5414 14.9883 60.1198 14.5668C59.6983 14.1452 59.1964 13.8125 58.6439 13.5884C58.0915 13.3642 57.4997 13.2532 56.9035 13.2619C56.3074 13.2706 55.7191 13.3988 55.1734 13.639C54.6277 13.8791 54.1357 14.2263 53.7266 14.66C52.931 15.5034 52.4954 16.6237 52.5123 17.7831C52.5292 18.9424 52.9973 20.0496 53.8172 20.8695C54.637 21.6893 55.7442 22.1574 56.9035 22.1743C58.0629 22.1912 59.1832 21.7556 60.0266 20.96Z" fill="white"/>
</svg>
