<svg width="119" height="166" viewBox="0 0 119 166" fill="none" xmlns="http://www.w3.org/2000/svg">
<path d="M118.353 130.649C116.369 140.7 109.924 146.349 101.278 148.257C93.6854 149.908 87.3637 150.311 81.2899 144.515C73.8835 137.142 73.7906 124.927 80.4532 117.224C85.7213 111.281 93.1276 110.071 104.253 107.76C106.112 107.356 107.723 106.842 109.087 105.045C111.07 102.404 110.45 103.541 110.45 45.1794C110.45 41.0709 108.746 39.9338 105.182 40.6674C102.641 41.181 47.6359 53.3595 47.6359 53.3595C44.4751 54.1666 43.4834 55.267 43.4834 59.4855C43.4834 145.579 43.8243 141.617 42.7087 147.34C41.4072 154.016 37.9364 159.042 33.35 161.829C28.1439 165.241 18.7233 166.745 13.7031 165.644C0.315857 162.673 -4.39446 144.369 4.68529 133.877C9.95341 127.935 17.3598 126.724 28.4848 124.413C30.3441 124.01 31.9555 123.496 33.319 121.699C36.4489 117.48 33.8768 27.5718 34.9305 22.583C35.1784 20.6755 35.8601 19.0615 37.1307 17.851C38.4322 16.5671 40.7874 15.8334 41.2832 15.8334C104.501 1.82076 112.217 0.0233198 113.301 0.0233198C116.865 -0.270139 118.91 2.22426 118.91 6.47942C118.972 132.85 119.251 126.064 118.353 130.649Z" fill="url(#paint0_linear)"/>
<defs>
<linearGradient id="paint0_linear" x1="124.852" y1="82.9999" x2="9.81402e-08" y2="82.9999" gradientUnits="userSpaceOnUse">
<stop offset="0.0703125" stop-color="#02689A"/>
<stop offset="1" stop-color="#480106"/>
</linearGradient>
</defs>
</svg>
