<svg width="317" height="171" viewBox="0 0 317 171" fill="none" xmlns="http://www.w3.org/2000/svg">
<path d="M153.938 105.347H144.139V132H137.547V105.347H127.879V100.008H153.938V105.347ZM151.741 119.893C151.741 117.535 152.195 115.433 153.104 113.587C154.012 111.741 155.315 110.313 157.015 109.302C158.729 108.292 160.713 107.786 162.969 107.786C166.177 107.786 168.792 108.768 170.813 110.73C172.85 112.693 173.985 115.359 174.219 118.729L174.263 120.354C174.263 124.002 173.245 126.932 171.209 129.144C169.173 131.341 166.441 132.439 163.013 132.439C159.585 132.439 156.846 131.341 154.795 129.144C152.759 126.946 151.741 123.958 151.741 120.179V119.893ZM158.091 120.354C158.091 122.61 158.516 124.339 159.366 125.54C160.215 126.727 161.431 127.32 163.013 127.32C164.551 127.32 165.752 126.734 166.617 125.562C167.481 124.375 167.913 122.486 167.913 119.893C167.913 117.681 167.481 115.967 166.617 114.751C165.752 113.536 164.537 112.928 162.969 112.928C161.417 112.928 160.215 113.536 159.366 114.751C158.516 115.953 158.091 117.82 158.091 120.354ZM198.851 123.365L201.971 108.226H208.101L202.037 132H196.719L192.215 117.037L187.71 132H182.415L176.351 108.226H182.481L185.579 123.343L189.93 108.226H194.522L198.851 123.365ZM217.11 108.226L217.308 110.972C219.007 108.848 221.285 107.786 224.141 107.786C226.661 107.786 228.536 108.526 229.766 110.005C230.997 111.485 231.626 113.697 231.656 116.641V132H225.306V116.795C225.306 115.447 225.013 114.473 224.427 113.873C223.841 113.257 222.867 112.95 221.504 112.95C219.717 112.95 218.377 113.711 217.483 115.235V132H211.133V108.226H217.11Z" fill="#FFFDFD"/>
<path d="M143.216 80C142.923 79.4287 142.71 78.7183 142.579 77.8687C141.041 79.5825 139.041 80.4395 136.58 80.4395C134.251 80.4395 132.317 79.7656 130.779 78.418C129.256 77.0703 128.494 75.3711 128.494 73.3203C128.494 70.8008 129.424 68.8672 131.285 67.5195C133.16 66.1719 135.862 65.4907 139.393 65.4761H142.315V64.1138C142.315 63.0151 142.029 62.1362 141.458 61.4771C140.901 60.8179 140.015 60.4883 138.799 60.4883C137.73 60.4883 136.888 60.7446 136.272 61.2573C135.672 61.77 135.372 62.4731 135.372 63.3667H129.021C129.021 61.9897 129.446 60.7153 130.296 59.5435C131.146 58.3716 132.347 57.4561 133.899 56.7969C135.452 56.123 137.195 55.7861 139.129 55.7861C142.059 55.7861 144.38 56.5259 146.094 58.0054C147.823 59.4702 148.687 61.5356 148.687 64.2017V74.5068C148.702 76.7627 149.017 78.4692 149.632 79.6265V80H143.216ZM137.964 75.5835C138.902 75.5835 139.766 75.3784 140.557 74.9683C141.348 74.5435 141.934 73.9795 142.315 73.2764V69.1895H139.942C136.763 69.1895 135.071 70.2881 134.866 72.4854L134.844 72.8589C134.844 73.6499 135.123 74.3018 135.679 74.8145C136.236 75.3271 136.998 75.5835 137.964 75.5835ZM160.86 74.8804H172.483V80H152.752V76.1328L163.936 61.3672H153.082V56.2256H172.132V59.9829L160.86 74.8804ZM183.755 74.8804H195.379V80H175.647V76.1328L186.832 61.3672H175.977V56.2256H195.027V59.9829L183.755 74.8804Z" fill="#FFFCFC"/>
<path d="M131.667 14.2501C133.413 14.2501 135.087 15.0007 136.322 16.3369C137.556 17.6731 138.25 19.4854 138.25 21.3751C138.25 23.2647 137.556 25.077 136.322 26.4132C135.087 27.7494 133.413 28.5001 131.667 28.5001C126.429 28.5001 121.405 30.7521 117.701 34.7607C113.997 38.7692 111.917 44.2061 111.917 49.8751V110.438C111.917 136.088 92.825 156.75 69.125 156.75C45.425 156.75 26.3333 136.088 26.3333 110.438V92.6251C24.5873 92.6251 22.9128 91.8744 21.6782 90.5382C20.4436 89.202 19.75 87.3897 19.75 85.5001C19.75 83.6104 20.4436 81.7981 21.6782 80.4619C22.9128 79.1257 24.5873 78.3751 26.3333 78.3751H65.8333C67.5793 78.3751 69.2538 79.1257 70.4884 80.4619C71.7231 81.7981 72.4167 83.6104 72.4167 85.5001C72.4167 87.3897 71.7231 89.202 70.4884 90.5382C69.2538 91.8744 67.5793 92.6251 65.8333 92.6251V106.875C65.8333 108.765 66.5269 110.577 67.7615 111.913C68.9962 113.249 70.6707 114 72.4167 114C74.1627 114 75.8372 113.249 77.0718 111.913C78.3064 110.577 79 108.765 79 106.875V78.3751C77.254 78.3751 75.5795 77.6244 74.3449 76.2882C73.1103 74.952 72.4167 73.1397 72.4167 71.2501C72.4167 69.3604 73.1103 67.5481 74.3449 66.2119C75.5795 64.8757 77.254 64.1251 79 64.1251V57.0001C77.254 57.0001 75.5795 56.2494 74.3449 54.9132C73.1103 53.577 72.4167 51.7647 72.4167 49.8751C72.4167 47.9854 73.1103 46.1731 74.3449 44.8369C75.5795 43.5007 77.254 42.7501 79 42.7501V39.1876C79 32.5737 81.4276 26.2308 85.7487 21.5541C90.0699 16.8774 95.9306 14.2501 102.042 14.2501H131.667Z" fill="#FFFCFC"/>
</svg>
