<svg width="124" height="65" viewBox="0 0 124 65" fill="none" xmlns="http://www.w3.org/2000/svg">
<path d="M50 5.41675C50.663 5.41675 51.2989 5.70209 51.7678 6.21C52.2366 6.71791 52.5 7.40679 52.5 8.12508C52.5 8.84338 52.2366 9.53225 51.7678 10.0402C51.2989 10.5481 50.663 10.8334 50 10.8334C48.0109 10.8334 46.1032 11.6894 44.6967 13.2132C43.2902 14.7369 42.5 16.8035 42.5 18.9584V41.9793C42.5 51.7293 35.25 59.5834 26.25 59.5834C17.25 59.5834 10 51.7293 10 41.9793V35.2084C9.33696 35.2084 8.70107 34.9231 8.23223 34.4152C7.76339 33.9073 7.5 33.2184 7.5 32.5001C7.5 31.7818 7.76339 31.0929 8.23223 30.585C8.70107 30.0771 9.33696 29.7917 10 29.7917H25C25.663 29.7917 26.2989 30.0771 26.7678 30.585C27.2366 31.0929 27.5 31.7818 27.5 32.5001C27.5 33.2184 27.2366 33.9073 26.7678 34.4152C26.2989 34.9231 25.663 35.2084 25 35.2084V40.6251C25 41.3434 25.2634 42.0323 25.7322 42.5402C26.2011 43.0481 26.837 43.3334 27.5 43.3334C28.163 43.3334 28.7989 43.0481 29.2678 42.5402C29.7366 42.0323 30 41.3434 30 40.6251V29.7917C29.337 29.7917 28.7011 29.5064 28.2322 28.9985C27.7634 28.4906 27.5 27.8017 27.5 27.0834C27.5 26.3651 27.7634 25.6762 28.2322 25.1683C28.7011 24.6604 29.337 24.3751 30 24.3751V21.6667C29.337 21.6667 28.7011 21.3814 28.2322 20.8735C27.7634 20.3656 27.5 19.6767 27.5 18.9584C27.5 18.2401 27.7634 17.5512 28.2322 17.0433C28.7011 16.5354 29.337 16.2501 30 16.2501V14.8959C30 12.3819 30.9219 9.97082 32.5628 8.19313C34.2038 6.41544 36.4294 5.41675 38.75 5.41675H50Z" fill="#480106"/>
<path d="M62.8105 33C62.6152 32.6191 62.4736 32.1455 62.3857 31.5791C61.3604 32.7217 60.0273 33.293 58.3867 33.293C56.834 33.293 55.5449 32.8438 54.5195 31.9453C53.5039 31.0469 52.9961 29.9141 52.9961 28.5469C52.9961 26.8672 53.6162 25.5781 54.8564 24.6797C56.1064 23.7812 57.9082 23.3271 60.2617 23.3174H62.21V22.4092C62.21 21.6768 62.0195 21.0908 61.6387 20.6514C61.2676 20.2119 60.6768 19.9922 59.8662 19.9922C59.1533 19.9922 58.5918 20.1631 58.1816 20.5049C57.7812 20.8467 57.5811 21.3154 57.5811 21.9111H53.3477C53.3477 20.9932 53.6309 20.1436 54.1973 19.3623C54.7637 18.5811 55.5645 17.9707 56.5996 17.5312C57.6348 17.082 58.7969 16.8574 60.0859 16.8574C62.0391 16.8574 63.5869 17.3506 64.7295 18.3369C65.8818 19.3135 66.458 20.6904 66.458 22.4678V29.3379C66.4678 30.8418 66.6777 31.9795 67.0879 32.751V33H62.8105ZM59.3096 30.0557C59.9346 30.0557 60.5107 29.9189 61.0381 29.6455C61.5654 29.3623 61.9561 28.9863 62.21 28.5176V25.793H60.6279C58.5088 25.793 57.3809 26.5254 57.2441 27.9902L57.2295 28.2393C57.2295 28.7666 57.415 29.2012 57.7861 29.543C58.1572 29.8848 58.665 30.0557 59.3096 30.0557ZM74.5732 29.5869H82.3223V33H69.168V30.4219L76.624 20.5781H69.3877V17.1504H82.0879V19.6553L74.5732 29.5869ZM89.8369 29.5869H97.5859V33H84.4316V30.4219L91.8877 20.5781H84.6514V17.1504H97.3516V19.6553L89.8369 29.5869Z" fill="black"/>
<path d="M69.959 40.2314H63.4258V58H59.0312V40.2314H52.5859V36.6719H69.959V40.2314ZM68.4941 49.9287C68.4941 48.3564 68.7969 46.9551 69.4023 45.7246C70.0078 44.4941 70.877 43.542 72.0098 42.8682C73.1523 42.1943 74.4756 41.8574 75.9795 41.8574C78.1182 41.8574 79.8613 42.5117 81.209 43.8203C82.5664 45.1289 83.3232 46.9062 83.4795 49.1523L83.5088 50.2363C83.5088 52.668 82.8301 54.6211 81.4727 56.0957C80.1152 57.5605 78.2939 58.293 76.0088 58.293C73.7236 58.293 71.8975 57.5605 70.5303 56.0957C69.1729 54.6309 68.4941 52.6387 68.4941 50.1191V49.9287ZM72.7275 50.2363C72.7275 51.7402 73.0107 52.8926 73.5771 53.6934C74.1436 54.4844 74.9541 54.8799 76.0088 54.8799C77.0342 54.8799 77.835 54.4893 78.4111 53.708C78.9873 52.917 79.2754 51.6572 79.2754 49.9287C79.2754 48.4541 78.9873 47.3115 78.4111 46.501C77.835 45.6904 77.0244 45.2852 75.9795 45.2852C74.9443 45.2852 74.1436 45.6904 73.5771 46.501C73.0107 47.3018 72.7275 48.5469 72.7275 50.2363ZM99.9004 52.2432L101.98 42.1504H106.067L102.024 58H98.4795L95.4766 48.0244L92.4736 58H88.9434L84.9004 42.1504H88.9873L91.0527 52.2285L93.9531 42.1504H97.0146L99.9004 52.2432ZM112.073 42.1504L112.205 43.9814C113.338 42.5654 114.856 41.8574 116.761 41.8574C118.44 41.8574 119.69 42.3506 120.511 43.3369C121.331 44.3232 121.751 45.7979 121.771 47.7607V58H117.537V47.8633C117.537 46.9648 117.342 46.3154 116.951 45.915C116.561 45.5049 115.911 45.2998 115.003 45.2998C113.812 45.2998 112.918 45.8076 112.322 46.8232V58H108.089V42.1504H112.073Z" fill="black"/>
</svg>
