<svg width="238" height="238" viewBox="0 0 238 238" fill="none" xmlns="http://www.w3.org/2000/svg">
<g clip-path="url(#clip0)">
<path d="M11.5033 163.288C11.9892 163.288 12.3958 162.901 12.4751 162.366L15.1526 142.314L12.4751 121.797C12.4057 121.261 11.9793 120.874 11.4934 120.874C10.9975 120.874 10.5612 121.271 10.5017 121.797L8.16138 142.314L10.5017 162.356C10.5612 162.901 10.9975 163.288 11.4934 163.288H11.5033Z" fill="url(#paint0_linear)"/>
<path d="M2.69733 155.662C3.17333 155.662 3.57 155.305 3.63942 154.77L5.712 142.314L3.63942 129.621C3.57 129.095 3.17333 128.728 2.69733 128.728C2.19158 128.728 1.80483 129.095 1.7255 129.621L0 142.314L1.7255 154.77C1.80483 155.295 2.19158 155.662 2.69733 155.662Z" fill="url(#paint1_linear)"/>
<path d="M22.0151 117.979C21.9952 117.675 21.8617 117.39 21.6412 117.181C21.4206 116.971 21.1293 116.852 20.8251 116.848C20.5213 116.85 20.2298 116.969 20.0103 117.179C19.7909 117.389 19.6602 117.675 19.645 117.979L17.4237 142.314L19.645 165.757C19.6652 166.059 19.7994 166.341 20.0204 166.548C20.2415 166.754 20.5327 166.868 20.835 166.868C21.1383 166.866 21.4296 166.749 21.6504 166.541C21.8711 166.334 22.005 166.05 22.025 165.747L24.5439 142.314L22.025 117.979H22.0151Z" fill="url(#paint2_linear)"/>
<path d="M30.2655 167.81C30.6183 167.804 30.956 167.666 31.2127 167.424C31.4695 167.182 31.6267 166.853 31.6538 166.501L34.0437 142.314L31.6637 117.304C31.6365 116.951 31.4778 116.62 31.219 116.378C30.9602 116.136 30.62 115.999 30.2655 115.995C29.909 115.995 29.566 116.132 29.3075 116.377C29.0491 116.623 28.895 116.958 28.8771 117.314L26.7649 142.314L28.8672 166.501C28.8851 166.859 29.0406 167.196 29.3012 167.442C29.5618 167.687 29.9073 167.823 30.2655 167.82V167.81Z" fill="url(#paint3_linear)"/>
<path d="M39.766 168.206C40.1755 168.207 40.5698 168.051 40.8683 167.771C41.1669 167.491 41.3473 167.108 41.3725 166.699L43.6137 142.314L41.3725 119.109C41.3449 118.702 41.1634 118.321 40.8651 118.043C40.5668 117.765 40.1739 117.611 39.766 117.611C39.3586 117.611 38.9666 117.767 38.6712 118.048C38.3759 118.328 38.1997 118.712 38.1794 119.119L36.196 142.324L38.1794 166.699C38.1997 167.106 38.3759 167.489 38.6712 167.77C38.9666 168.051 39.3586 168.207 39.766 168.206Z" fill="url(#paint4_linear)"/>
<path d="M53.2526 142.324L51.1503 104.591C51.1227 104.13 50.921 103.696 50.586 103.377C50.251 103.059 49.8076 102.88 49.3454 102.875C48.8825 102.877 48.4379 103.056 48.1024 103.375C47.7668 103.694 47.5659 104.129 47.5406 104.591L45.6763 142.324L47.5406 166.699C47.5874 167.145 47.7978 167.558 48.131 167.858C48.4643 168.158 48.8969 168.324 49.3454 168.324C49.7939 168.324 50.2265 168.158 50.5598 167.858C50.8931 167.558 51.1034 167.145 51.1503 166.699L53.2526 142.324Z" fill="url(#paint5_linear)"/>
<path d="M59.014 168.454C59.5275 168.455 60.0215 168.257 60.3928 167.903C60.7642 167.548 60.9843 167.064 61.0073 166.551V166.57L62.9807 142.334L61.0073 95.9637C60.9715 95.4555 60.7444 94.9797 60.3718 94.6323C59.9991 94.285 59.5086 94.0918 58.9991 94.0918C58.4897 94.0918 57.9992 94.285 57.6265 94.6323C57.2538 94.9797 57.0267 95.4555 56.991 95.9637L55.2655 142.334L57.0009 166.56C57.029 167.073 57.254 167.556 57.6291 167.907C58.0042 168.258 58.5003 168.45 59.014 168.445V168.454Z" fill="url(#paint6_linear)"/>
<path d="M68.7326 90.0038C68.1638 90.0006 67.6158 90.2178 67.2036 90.6097C66.7913 91.0016 66.5468 91.5379 66.5212 92.1061L64.9147 142.334L66.5212 166.313C66.5468 166.88 66.7917 167.415 67.2043 167.805C67.6168 168.196 68.1647 168.411 68.7326 168.405C69.3012 168.413 69.8505 168.199 70.2636 167.808C70.6767 167.417 70.9208 166.881 70.944 166.313L72.7786 142.334L70.944 92.1061C70.9233 91.5362 70.6803 90.997 70.267 90.604C69.8536 90.2111 69.3028 89.9956 68.7326 90.0038Z" fill="url(#paint7_linear)"/>
<path d="M78.5403 168.454C79.1648 168.465 79.7685 168.23 80.2212 167.8C80.6739 167.369 80.9392 166.778 80.9599 166.154V166.174L82.6458 142.334L80.9599 90.4202C80.9392 89.7977 80.6753 89.2081 80.2247 88.7779C79.7742 88.3478 79.173 88.1114 78.5502 88.1196C77.9259 88.1062 77.3217 88.3409 76.87 88.7721C76.4184 89.2033 76.156 89.796 76.1404 90.4202L74.6232 142.334L76.1404 166.174C76.1603 167.453 77.2313 168.454 78.5502 168.454H78.5403Z" fill="url(#paint8_linear)"/>
<path d="M88.4367 168.435C89.1121 168.443 89.7638 168.185 90.2515 167.718C90.7392 167.251 91.024 166.611 91.0448 165.936V165.955L92.6017 142.344L91.0448 91.7391C91.019 91.0675 90.7319 90.4325 90.2447 89.9694C89.7576 89.5063 89.1088 89.2517 88.4367 89.26C87.7629 89.2491 87.1116 89.5025 86.6223 89.9659C86.133 90.4292 85.8445 91.0657 85.8187 91.7391L84.4502 142.344L85.8286 165.946C85.8584 167.334 87.0087 168.425 88.4367 168.425V168.435Z" fill="url(#paint9_linear)"/>
<path d="M102.627 142.344L101.219 93.5836C101.193 92.8576 100.884 92.1706 100.358 91.6701C99.831 91.1695 99.1293 90.8953 98.4029 90.9061C97.6732 90.8927 96.9675 91.1672 96.4386 91.6701C95.9096 92.173 95.6 92.864 95.5767 93.5935L94.3173 142.344L95.5767 165.807C95.6026 166.534 95.9133 167.223 96.442 167.724C96.9706 168.225 97.6748 168.498 98.4029 168.484C99.1343 168.495 99.8404 168.217 100.368 167.71C100.895 167.203 101.201 166.508 101.219 165.777V165.807L102.627 142.344Z" fill="url(#paint10_linear)"/>
<path d="M108.439 168.524C110.075 168.524 111.424 167.235 111.454 165.648L112.733 142.354L111.454 84.3412C111.428 83.5617 111.098 82.8233 110.534 82.284C109.971 81.7447 109.219 81.4473 108.439 81.4555C107.659 81.4497 106.907 81.7476 106.343 82.2862C105.778 82.8247 105.445 83.5617 105.414 84.3412L104.274 142.334L105.414 165.658C105.444 167.225 106.803 168.524 108.439 168.524Z" fill="url(#paint11_linear)"/>
<path d="M118.445 76.0014C117.61 75.9879 116.802 76.3021 116.196 76.8768C115.59 77.4515 115.233 78.2408 115.202 79.0756L113.883 142.364L115.212 165.321C115.243 166.15 115.598 166.935 116.2 167.506C116.803 168.077 117.605 168.389 118.435 168.375C119.268 168.386 120.072 168.068 120.673 167.491C121.274 166.914 121.624 166.124 121.648 165.291V165.321L123.096 142.364L121.648 79.0855C121.624 78.2543 121.276 77.4654 120.677 76.8886C120.078 76.3119 119.276 75.9933 118.445 76.0014Z" fill="url(#paint12_linear)"/>
<path d="M127.588 168.544L208.716 168.583C224.89 168.583 238 156.009 238 140.489C238 124.98 224.89 112.405 208.716 112.405C204.71 112.405 200.882 113.189 197.391 114.587C195.081 89.2797 172.947 69.4166 145.954 69.4166C139.359 69.4166 132.923 70.6661 127.241 72.7784C125.03 73.6015 124.435 74.4444 124.415 76.0806V165.222C124.446 166.068 124.786 166.873 125.371 167.485C125.955 168.097 126.744 168.474 127.588 168.544Z" fill="url(#paint13_linear)"/>
</g>
<defs>
<linearGradient id="paint0_linear" x1="15.4965" y1="142.081" x2="8.16138" y2="142.081" gradientUnits="userSpaceOnUse">
<stop offset="0.0703125" stop-color="#02689A"/>
<stop offset="1" stop-color="#480106"/>
</linearGradient>
<linearGradient id="paint1_linear" x1="5.99292" y1="142.195" x2="4.71073e-09" y2="142.195" gradientUnits="userSpaceOnUse">
<stop offset="0.0703125" stop-color="#02689A"/>
<stop offset="1" stop-color="#480106"/>
</linearGradient>
<linearGradient id="paint2_linear" x1="24.894" y1="141.858" x2="17.4237" y2="141.858" gradientUnits="userSpaceOnUse">
<stop offset="0.0703125" stop-color="#02689A"/>
<stop offset="1" stop-color="#480106"/>
</linearGradient>
<linearGradient id="paint3_linear" x1="34.4017" y1="141.908" x2="26.7649" y2="141.908" gradientUnits="userSpaceOnUse">
<stop offset="0.0703125" stop-color="#02689A"/>
<stop offset="1" stop-color="#480106"/>
</linearGradient>
<linearGradient id="paint4_linear" x1="43.9785" y1="142.909" x2="36.196" y2="142.909" gradientUnits="userSpaceOnUse">
<stop offset="0.0703125" stop-color="#02689A"/>
<stop offset="1" stop-color="#480106"/>
</linearGradient>
<linearGradient id="paint5_linear" x1="53.6252" y1="135.6" x2="45.6763" y2="135.6" gradientUnits="userSpaceOnUse">
<stop offset="0.0703125" stop-color="#02689A"/>
<stop offset="1" stop-color="#480106"/>
</linearGradient>
<linearGradient id="paint6_linear" x1="63.3601" y1="131.273" x2="55.2655" y2="131.273" gradientUnits="userSpaceOnUse">
<stop offset="0.0703125" stop-color="#02689A"/>
<stop offset="1" stop-color="#480106"/>
</linearGradient>
<linearGradient id="paint7_linear" x1="73.1653" y1="129.204" x2="64.9147" y2="129.204" gradientUnits="userSpaceOnUse">
<stop offset="0.0703125" stop-color="#02689A"/>
<stop offset="1" stop-color="#480106"/>
</linearGradient>
<linearGradient id="paint8_linear" x1="83.0403" y1="128.287" x2="74.6232" y2="128.287" gradientUnits="userSpaceOnUse">
<stop offset="0.0703125" stop-color="#02689A"/>
<stop offset="1" stop-color="#480106"/>
</linearGradient>
<linearGradient id="paint9_linear" x1="93.0026" y1="128.847" x2="84.4502" y2="128.847" gradientUnits="userSpaceOnUse">
<stop offset="0.0703125" stop-color="#02689A"/>
<stop offset="1" stop-color="#480106"/>
</linearGradient>
<linearGradient id="paint10_linear" x1="103.036" y1="129.695" x2="94.3173" y2="129.695" gradientUnits="userSpaceOnUse">
<stop offset="0.0703125" stop-color="#02689A"/>
<stop offset="1" stop-color="#480106"/>
</linearGradient>
<linearGradient id="paint11_linear" x1="113.149" y1="124.99" x2="104.274" y2="124.99" gradientUnits="userSpaceOnUse">
<stop offset="0.0703125" stop-color="#02689A"/>
<stop offset="1" stop-color="#480106"/>
</linearGradient>
<linearGradient id="paint12_linear" x1="123.549" y1="122.188" x2="113.883" y2="122.188" gradientUnits="userSpaceOnUse">
<stop offset="0.0703125" stop-color="#02689A"/>
<stop offset="1" stop-color="#480106"/>
</linearGradient>
<linearGradient id="paint13_linear" x1="243.586" y1="119" x2="124.415" y2="119" gradientUnits="userSpaceOnUse">
<stop offset="0.0703125" stop-color="#02689A"/>
<stop offset="1" stop-color="#480106"/>
</linearGradient>
<clipPath id="clip0">
<rect width="238" height="238" fill="white"/>
</clipPath>
</defs>
</svg>
