<svg width="136" height="136" viewBox="0 0 136 136" fill="none" xmlns="http://www.w3.org/2000/svg">
<path d="M67.9717 0C30.4923 0 0 30.498 0 67.9773C0 105.491 30.4923 136 67.9717 136C105.485 136 136 105.485 136 67.9773C136 30.498 105.485 0 67.9717 0ZM33.4787 92.956C41.2614 90.5719 49.3543 89.3536 57.494 89.3407C71.1733 89.3407 84.677 92.8087 96.5487 99.3707C97.257 99.756 97.8973 101.025 98.192 102.612C98.4753 104.199 98.362 105.825 97.8973 106.669C97.6783 107.071 97.3818 107.425 97.025 107.711C96.6681 107.997 96.258 108.21 95.8184 108.336C95.3788 108.463 94.9185 108.501 94.4641 108.448C94.0097 108.396 93.5703 108.253 93.1713 108.029C84.4515 103.246 74.8597 100.262 64.965 99.2557C55.0702 98.2492 45.0741 99.2402 35.5697 102.17C35.1333 102.311 34.6733 102.364 34.2164 102.325C33.7594 102.287 33.3147 102.158 32.9081 101.946C32.5014 101.734 32.1411 101.443 31.8479 101.091C31.5548 100.738 31.3348 100.331 31.2007 99.892C30.5943 97.9087 31.8467 93.4887 33.4787 92.956ZM30.515 67.9093C39.3071 65.5208 48.3776 64.3107 57.4883 64.311C73.8877 64.311 90.168 68.2777 104.578 75.7917C105.593 76.3017 106.335 77.1743 106.675 78.2397C106.847 78.7777 106.909 79.3446 106.859 79.9071C106.808 80.4696 106.645 81.0163 106.38 81.515C105.094 84.031 103.587 85.7253 102.64 85.7253C101.95 85.7223 101.27 85.5553 100.657 85.238C87.3358 78.2832 72.5213 74.6773 57.494 74.732C49.1353 74.7152 40.8128 75.8303 32.7533 78.047C32.2157 78.194 31.6543 78.2336 31.1014 78.1636C30.5484 78.0937 30.0146 77.9155 29.5305 77.6392C29.0464 77.363 28.6215 76.9941 28.2799 76.5536C27.9384 76.1131 27.687 75.6097 27.54 75.072C26.9053 72.6807 28.3617 68.4987 30.515 67.9093ZM29.75 51.5553C29.1122 51.719 28.4483 51.7548 27.7965 51.6605C27.1448 51.5663 26.5182 51.3439 25.9529 51.0062C25.3876 50.6685 24.8948 50.2221 24.5029 49.693C24.111 49.1638 23.8278 48.5622 23.6697 47.923C22.9727 45.101 24.735 41.8257 27.2963 41.1797C37.1762 38.7462 47.3132 37.5114 57.4883 37.502C77.0383 37.502 95.7723 41.8993 113.158 50.575C114.352 51.169 115.262 52.2129 115.687 53.4774C116.112 54.7419 116.018 56.1235 115.424 57.3183C114.614 58.9503 112.857 60.707 110.919 60.707C110.159 60.7042 109.409 60.5359 108.721 60.214C92.8233 52.2389 75.2739 48.1122 57.4883 48.1667C48.2233 48.1667 38.8903 49.3057 29.75 51.5553Z" fill="url(#paint0_linear)"/>
<defs>
<linearGradient id="paint0_linear" x1="142.689" y1="68" x2="1.1216e-07" y2="68" gradientUnits="userSpaceOnUse">
<stop offset="0.0703125" stop-color="#02689A"/>
<stop offset="1" stop-color="#480106"/>
</linearGradient>
</defs>
</svg>
