<svg width="80" height="80" viewBox="0 0 80 80" fill="none" xmlns="http://www.w3.org/2000/svg">
<path d="M78.81 16.4567C76.0267 17.69 73.0367 18.5233 69.8933 18.9C73.1367 16.9593 75.5632 13.9049 76.72 10.3067C73.6728 12.1166 70.3378 13.3906 66.86 14.0733C64.5213 11.5762 61.4236 9.92108 58.0478 9.36491C54.672 8.80873 51.207 9.38263 48.1908 10.9975C45.1746 12.6124 42.7759 15.1779 41.3672 18.2957C39.9585 21.4135 39.6185 24.9092 40.4 28.24C34.2256 27.93 28.1854 26.3252 22.6714 23.5297C17.1574 20.7342 12.2928 16.8105 8.39335 12.0133C7.06002 14.3133 6.29335 16.98 6.29335 19.82C6.29186 22.3766 6.92146 24.8941 8.12628 27.1491C9.3311 29.4041 11.0739 31.3268 13.2 32.7467C10.7343 32.6682 8.32293 32.0019 6.16669 30.8033V31.0033C6.16644 34.5891 7.40679 38.0646 9.6773 40.84C11.9478 43.6154 15.1086 45.5198 18.6234 46.23C16.336 46.849 13.9378 46.9402 11.61 46.4967C12.6017 49.582 14.5333 52.2801 17.1346 54.2131C19.7358 56.1461 22.8764 57.2173 26.1167 57.2767C20.6161 61.5947 13.823 63.937 6.83002 63.9267C5.59129 63.927 4.35361 63.8546 3.12335 63.71C10.2216 68.2739 18.4845 70.6961 26.9234 70.6867C55.49 70.6867 71.1067 47.0267 71.1067 26.5067C71.1067 25.84 71.09 25.1667 71.06 24.5C74.0977 22.3032 76.7197 19.583 78.8034 16.4667L78.81 16.4567Z" fill="white"/>
</svg>
